<?xml version="1.0" standalone="no"?>
<!DOCTYPE svg PUBLIC "-//W3C//DTD SVG 20010904//EN"
 "http://www.w3.org/TR/2001/REC-SVG-20010904/DTD/svg10.dtd">
<svg version="1.0" xmlns="http://www.w3.org/2000/svg"
 width="700.000000pt" height="700.000000pt" viewBox="0 0 700.000000 700.000000"
 preserveAspectRatio="xMidYMid meet">
<metadata>
Created by potrace 1.11, written by Peter Selinger 2001-2013
</metadata>
<g transform="translate(0.000000,700.000000) scale(0.100000,-0.100000)"
fill="#000000" stroke="none">
<path d="M1630 5628 c-19 -7 -25 -32 -20 -83 3 -32 17 -39 76 -41 30 -1 60 -6
65 -11 8 -8 15 -293 10 -380 -1 -8 -17 -13 -44 -13 -24 0 -48 -5 -55 -12 -7
-7 -12 -38 -12 -70 0 -39 -4 -58 -12 -59 -7 -1 -215 -2 -463 -4 -301 -1 -459
-5 -477 -13 -39 -16 -77 -62 -85 -102 -4 -19 -7 -70 -6 -112 l0 -78 -86 -1
c-47 -1 -90 -2 -96 -4 -5 -1 -15 -3 -20 -3 -22 -4 -36 -73 -34 -159 3 -131 40
-273 80 -309 17 -15 25 -16 77 -4 31 7 62 14 68 17 7 3 10 -122 10 -417 l-1
-422 -30 -21 c-115 -84 -240 -237 -305 -371 -80 -167 -106 -286 -104 -481 5
-434 288 -819 706 -959 282 -95 603 -57 858 102 93 57 107 69 196 158 80 80
135 156 187 259 38 75 80 202 92 275 4 25 9 54 11 65 7 32 6 184 -1 250 -24
221 -136 446 -307 615 l-80 80 0 112 c0 62 1 121 1 131 1 17 7 18 59 13 31 -3
68 -8 81 -11 13 -2 49 -7 80 -11 31 -3 58 -8 61 -9 3 -2 37 -6 75 -10 39 -4
72 -9 75 -10 3 -2 30 -6 60 -10 55 -6 94 -11 140 -20 14 -2 48 -7 75 -10 28
-3 61 -7 75 -10 14 -3 45 -7 70 -10 38 -5 151 -20 290 -41 87 -12 169 -23 215
-29 28 -3 61 -8 75 -10 14 -3 43 -7 65 -11 22 -3 67 -9 100 -14 33 -5 87 -12
120 -16 33 -3 63 -8 66 -10 3 -2 30 -6 60 -9 30 -3 63 -7 74 -9 11 -3 34 -5
51 -5 l31 -1 -18 -92 c-56 -297 -43 -537 46 -804 188 -567 689 -971 1290
-1039 62 -7 274 -8 310 -1 11 2 47 7 79 11 32 3 102 17 155 31 409 105 765
384 967 759 30 55 101 220 109 255 2 8 11 40 20 70 8 30 18 71 21 90 3 19 7
41 9 48 21 62 25 375 6 482 -6 36 -13 79 -16 95 -18 99 -73 254 -132 372 l-46
91 21 26 c57 73 -44 264 -239 451 -96 92 -175 150 -306 224 l-92 52 5 45 c5
56 27 99 61 121 22 15 49 18 140 18 123 0 135 5 127 52 -12 67 -97 144 -174
158 -85 16 -189 -6 -286 -60 -90 -50 -206 -63 -384 -41 -121 15 -216 27 -239
31 -13 2 -45 7 -70 11 -25 3 -91 17 -146 31 -195 49 -242 42 -211 -31 20 -49
71 -110 117 -142 22 -15 39 -30 39 -33 0 -4 -28 -13 -62 -21 -35 -7 -94 -24
-133 -37 -38 -14 -74 -26 -80 -27 -28 -6 -67 -22 -135 -53 -69 -32 -80 -34
-138 -28 -35 3 -71 8 -81 10 -30 6 -80 13 -171 25 -89 12 -144 20 -170 25 -8
2 -23 4 -32 4 -15 1 -18 11 -18 59 l1 57 148 155 149 155 29 -25 c15 -14 30
-27 33 -31 12 -12 148 -117 185 -142 85 -56 145 -57 145 0 0 124 -568 667
-681 649 -78 -11 -42 -99 111 -270 25 -28 57 -63 73 -77 15 -15 27 -31 27 -36
0 -4 -49 -59 -108 -122 l-109 -114 -6 58 c-7 66 -27 100 -78 130 -33 19 -53
20 -956 20 -508 0 -924 2 -924 5 -1 3 -2 28 -3 57 -3 66 -17 83 -71 83 l-43 0
0 247 c-1 303 8 285 -141 287 -56 1 -110 -2 -121 -6z"/>
</g>
</svg>
