<svg xmlns="http://www.w3.org/2000/svg" viewBox="0 0 1080 1080"><defs><style>.cls-1{isolation:isolate;}.cls-10,.cls-2,.cls-4,.cls-5,.cls-6,.cls-7,.cls-8,.cls-9{stroke:#000;stroke-miterlimit:10;}.cls-3{opacity:0.55;mix-blend-mode:multiply;}.cls-10,.cls-4,.cls-5,.cls-8{fill:none;}.cls-4{stroke-width:6px;}.cls-6{stroke-width:8px;}.cls-7{stroke-width:7px;}.cls-8{stroke-width:3px;}.cls-10,.cls-9{stroke-width:46px;}</style></defs><title>traktorArtboard 1</title><g class="cls-1"><g id="Layer_1" data-name="Layer 1"><path class="cls-2" d="M875,461c0-16,1-25,15-27s28,5,26-6-17-25-38-20-22,14-43,14-68-7-79-10-36-11-26,6a51.06,51.06,0,0,0,26,22s54-6,66,1,33,40,43,30Z"/><g id="engine"><polygon class="cls-2" points="448 452 520 450 621 446 700 469 838 489 637 581.49 611 664 517 650 375 643 253 583 313 446 448 452"/><g class="cls-3"><polyline points="261 548 457 620 565 532 633 688"/><polyline class="cls-4" points="261 548 457 620 565 532 633 688"/></g><polyline points="259 544 455 616 563 528 631 684"/><polyline class="cls-4" points="259 544 455 616 563 528 631 684"/><g class="cls-3"><rect x="499" y="526" width="157" height="66" rx="12" ry="12"/><rect class="cls-5" x="499" y="526" width="157" height="66" rx="12" ry="12"/></g><rect x="497" y="522" width="157" height="66" rx="12" ry="12"/><rect class="cls-5" x="497" y="522" width="157" height="66" rx="12" ry="12"/><g id="steering_wheel" data-name="steering wheel"><line class="cls-6" x1="540" y1="553" x2="660" y2="427"/><ellipse class="cls-7" cx="677" cy="414" rx="9" ry="57" transform="translate(-89.69 618.72) rotate(-46.4)"/><line class="cls-6" x1="656" y1="385" x2="660" y2="427"/><line class="cls-6" x1="707" y1="433" x2="660" y2="427"/><line class="cls-6" x1="671" y1="421" x2="660" y2="427"/></g><g class="cls-3"><rect x="474" y="531" width="15" height="110" rx="7.5" ry="7.5"/><rect class="cls-5" x="474" y="531" width="15" height="110" rx="7.5" ry="7.5"/></g><rect x="472" y="527" width="15" height="110" rx="7.5" ry="7.5"/><rect class="cls-5" x="472" y="527" width="15" height="110" rx="7.5" ry="7.5"/><g class="cls-3"><line x1="369" y1="642" x2="623" y2="614"/><line class="cls-4" x1="369" y1="642" x2="623" y2="614"/></g><line x1="367" y1="638" x2="621" y2="610"/><line class="cls-4" x1="367" y1="638" x2="621" y2="610"/><g class="cls-3"><rect x="329" y="532" width="61" height="25" rx="12" ry="12"/><rect class="cls-5" x="329" y="532" width="61" height="25" rx="12" ry="12"/></g><rect x="327" y="528" width="61" height="25" rx="12" ry="12"/><rect class="cls-5" x="327" y="528" width="61" height="25" rx="12" ry="12"/><g class="cls-3"><rect x="398" y="532" width="59" height="23" rx="11.5" ry="11.5"/><rect class="cls-5" x="398" y="532" width="59" height="23" rx="11.5" ry="11.5"/></g><rect x="396" y="528" width="59" height="23" rx="11.5" ry="11.5"/><rect class="cls-5" x="396" y="528" width="59" height="23" rx="11.5" ry="11.5"/><g class="cls-3"><rect x="450" y="540" width="27" height="9" rx="4.5" ry="4.5"/><rect class="cls-5" x="450" y="540" width="27" height="9" rx="4.5" ry="4.5"/></g><rect x="448" y="536" width="27" height="9" rx="4.5" ry="4.5"/><rect class="cls-5" x="448" y="536" width="27" height="9" rx="4.5" ry="4.5"/><g class="cls-3"><rect x="377" y="586" width="76" height="40" rx="12" ry="12"/><rect class="cls-5" x="377" y="586" width="76" height="40" rx="12" ry="12"/></g><rect x="375" y="582" width="76" height="40" rx="12" ry="12"/><rect class="cls-5" x="375" y="582" width="76" height="40" rx="12" ry="12"/><g class="cls-3"><rect x="306" y="506" width="50" height="6" rx="3" ry="3"/><rect class="cls-5" x="306" y="506" width="50" height="6" rx="3" ry="3"/></g><rect x="304" y="502" width="50" height="6" rx="3" ry="3"/><rect class="cls-5" x="304" y="502" width="50" height="6" rx="3" ry="3"/><g class="cls-3"><polyline points="286 586 400 576 482 552 602 554"/><polyline class="cls-4" points="286 586 400 576 482 552 602 554"/></g><polyline points="284 582 398 572 480 548 600 550"/><polyline class="cls-4" points="284 582 398 572 480 548 600 550"/><g class="cls-3"><polyline points="289 597 412 585 469 565 643 555"/><polyline class="cls-4" points="289 597 412 585 469 565 643 555"/></g><polyline points="287 593 410 581 467 561 641 551"/><polyline class="cls-4" points="287 593 410 581 467 561 641 551"/><g class="cls-3"><rect x="272" y="538" width="34" height="66" rx="12" ry="12"/><rect class="cls-5" x="272" y="538" width="34" height="66" rx="12" ry="12"/></g><rect x="270" y="534" width="34" height="66" rx="12" ry="12"/><rect class="cls-5" x="270" y="534" width="34" height="66" rx="12" ry="12"/><g class="cls-3"><rect x="363" y="468" width="96" height="70" rx="12" ry="12"/><rect class="cls-5" x="363" y="468" width="96" height="70" rx="12" ry="12"/></g><rect x="361" y="464" width="96" height="70" rx="12" ry="12"/><rect class="cls-5" x="361" y="464" width="96" height="70" rx="12" ry="12"/><g class="cls-3"><rect x="393" y="512" width="70" height="8" rx="4" ry="4"/><rect class="cls-5" x="393" y="512" width="70" height="8" rx="4" ry="4"/></g><rect x="391" y="508" width="70" height="8" rx="4" ry="4"/><rect class="cls-5" x="391" y="508" width="70" height="8" rx="4" ry="4"/><g class="cls-3"><polyline points="289.5 491.5 524.5 488.5 524.5 534.5 504 534.5 503.5 511.5 547.5 511.5 547.5 584.5 568.5 584.5 568.5 574.5 595.5 574.5 595.5 602.5 513.5 604.5 511.5 591.5"/><polyline class="cls-8" points="289.5 491.5 524.5 488.5 524.5 534.5 504 534.5 503.5 511.5 547.5 511.5 547.5 584.5 568.5 584.5 568.5 574.5 595.5 574.5 595.5 602.5 513.5 604.5 511.5 591.5"/></g><polyline points="287.5 488.5 522.5 485.5 522.5 531.5 502 531.5 501.5 508.5 545.5 508.5 545.5 581.5 566.5 581.5 566.5 571.5 593.5 571.5 593.5 599.5 511.5 601.5 509.5 588.5"/><polyline class="cls-8" points="287.5 488.5 522.5 485.5 522.5 531.5 502 531.5 501.5 508.5 545.5 508.5 545.5 581.5 566.5 581.5 566.5 571.5 593.5 571.5 593.5 599.5 511.5 601.5 509.5 588.5"/></g><path id="stänkskärm" class="cls-2" d="M940,548c10-34-11-59-48-81s-69-36-109-37-89,16-111,29-52,44-51,63,35,9.41,45,0c33-31,64-47,117-48C896,471.87,940,548,940,548Z"/><g id="top"><path d="M493.22,408.26C514,408,561,407,578,408s42,5,45,20,3,22,3,22-34,8-36,14,3,15-6,19-87,1-87,1,.5-29.26,0-39C496.53,435.78,493.22,408.26,493.22,408.26Z"/><path class="cls-5" d="M493.22,408.26C514,408,561,407,578,408s42,5,45,20,3,22,3,22-34,8-36,14,3,15-6,19-87,1-87,1,.5-29.26,0-39C496.53,435.78,493.22,408.26,493.22,408.26Z"/><path d="M242.56,649.62a51.32,51.32,0,0,1-14.41-2.09l-.08,0H228A24.53,24.53,0,0,1,203.5,623V453c0-13.22,13.17-28.82,26.6-31.51,25.72-5.14,56.48-7.56,89-10.11,11.44-.9,23.27-1.83,34.91-2.88,21.85-2,45.3-3,69.71-3,41.57,0,71.89,3,72.19,3a5,5,0,0,1,3.78,1.69c6.44,6.8,5.1,31.58,4.21,48-.22,4.1-.42,7.68-.44,10.26-5.54-.86-49.88-7.56-92.84-7.56-57.68,0-87.34,11.48-88.17,34.12-1.78,48.85-13.3,54.62-24.45,60.2C287.22,560.61,277,565.73,276.5,608,276.1,642.4,257.83,649.62,242.56,649.62Z"/><path d="M423.76,406c41.54,0,71.84,3,72.14,3h.1a4.47,4.47,0,0,1,3.37,1.53c6.29,6.64,4.91,32.28,4.08,47.6-.21,3.81-.39,7.17-.43,9.7-7.52-1.15-50.59-7.47-92.35-7.47-25.34,0-45.59,2.3-60.19,6.83C332,472.91,322.46,482.25,322,495c-1.77,48.55-13.16,54.26-24.18,59.78S276.5,565.42,276,608c-.4,34-18.4,41.13-33.44,41.13a50.82,50.82,0,0,1-14.25-2.07l-.15-.05H228a24,24,0,0,1-24-24V453c0-13,13-28.38,26.2-31,25.69-5.14,56.43-7.55,89-10.1,11.44-.9,23.27-1.83,34.91-2.88,21.83-2,45.27-3,69.67-3m0-1c-21,0-45.05.75-69.76,3-44,4-89,6-124,13-13.48,2.7-27,18.25-27,32V623a25.07,25.07,0,0,0,25,25,51.32,51.32,0,0,0,14.56,2.12c14.29,0,34-6.48,34.44-42.12,1-86,42.51-17,46-113,1-26.77,43.88-33.64,87.67-33.64C456.84,461.36,504,469,504,469c0-13.75,5.75-61-8-61,0,0-30.16-3-72.24-3Z"/><rect class="cls-2" x="351" y="467" width="16" height="69" rx="8" ry="8"/><rect class="cls-2" x="337" y="390" width="44" height="100" rx="7" ry="7"/><path class="cls-2" d="M359,410h0a8,8,0,0,1-8-8s0-47,0-56c0-3-1-6-5-6H335c-4.4,0-4.4-16,0-16h24a8,8,0,0,1,8,8v70A8,8,0,0,1,359,410Z"/><g class="cls-3"><path class="cls-2" d="M196.32,450.55l8.42,59.93s60.85-8.55,54.86-37.8S196.32,450.55,196.32,450.55Z"/><ellipse class="cls-2" cx="200.8" cy="480.49" rx="8.43" ry="30.45" transform="matrix(0.99, -0.14, 0.14, 0.99, -64.92, 32.62)"/></g><path class="cls-2" d="M194.32,446.55l8.42,59.93s60.85-8.55,54.86-37.8S194.32,446.55,194.32,446.55Z"/><ellipse class="cls-2" cx="198.8" cy="476.49" rx="8.43" ry="30.45" transform="matrix(0.99, -0.14, 0.14, 0.99, -64.38, 32.3)"/></g><g id="front_wheel" data-name="front wheel"><circle id="frontwheel" class="cls-9" cx="277.5" cy="708.5" r="101"/><g class="cls-3"><circle cx="279" cy="713" r="23"/><circle class="cls-5" cx="279" cy="713" r="23"/></g><circle cx="277" cy="709" r="23"/><circle class="cls-5" cx="277" cy="709" r="23"/><g class="cls-3"><circle class="cls-2" cx="278" cy="678" r="4"/><circle class="cls-2" cx="278" cy="744" r="4"/><circle class="cls-2" cx="249.42" cy="694.5" r="4" transform="translate(-476.77 563.35) rotate(-60.01)"/><circle class="cls-2" cx="306.58" cy="727.5" r="4" transform="translate(-476.75 629.36) rotate(-60.01)"/><circle class="cls-2" cx="249.42" cy="727.5" r="4" transform="translate(-330.4 222.26) rotate(-30.01)"/><circle class="cls-2" cx="306.58" cy="694.5" r="4" transform="translate(-306.23 246.42) rotate(-30.01)"/></g><circle class="cls-2" cx="277" cy="676" r="4"/><circle class="cls-2" cx="277" cy="742" r="4"/><circle class="cls-2" cx="248.42" cy="692.5" r="4" transform="translate(-475.53 561.49) rotate(-60.01)"/><circle class="cls-2" cx="305.58" cy="725.5" r="4" transform="translate(-475.52 627.49) rotate(-60.01)"/><circle class="cls-2" cx="248.42" cy="725.5" r="4" transform="translate(-329.54 221.49) rotate(-30.01)"/><circle class="cls-2" cx="305.58" cy="692.5" r="4" transform="translate(-305.37 245.65) rotate(-30.01)"/><g id="frontwheel-2" data-name="frontwheel"><circle cx="277" cy="710" r="101"/><circle class="cls-10" cx="277" cy="710" r="101"/></g></g><g id="back_wheel" data-name="back wheel"><circle class="cls-2" cx="788.5" cy="655.5" r="117.5"/><g class="cls-3"><path class="cls-2" d="M812,751.92s-7,2.62-20.92,2.62c-14.94,0-21.92-2.62-21.92-2.62V571s6-3.5,21.92-3.5C806,567.46,812,571,812,571Z"/><circle class="cls-2" cx="790.55" cy="659.69" r="79.12"/><path class="cls-2" d="M880,687.91s-1.22,7.35-8.19,19.43C864.34,720.28,858.58,725,858.58,725L701.87,634.53s0-6.92,7.93-20.73c7.47-12.94,13.49-16.37,13.49-16.37Z"/><path class="cls-2" d="M858.58,597.43s5.76,4.73,12.73,16.81c7.47,12.94,8.69,20.29,8.69,20.29L723.28,725s-6-3.43-14-17.23c-7.47-12.94-7.43-19.87-7.43-19.87Z"/></g><path class="cls-2" d="M810,747.92s-7,2.62-20.92,2.62c-14.94,0-21.92-2.62-21.92-2.62V567s6-3.5,21.92-3.5C804,563.46,810,567,810,567Z"/><circle class="cls-2" cx="788.55" cy="655.69" r="79.12"/><path class="cls-2" d="M878,683.91s-1.22,7.35-8.19,19.43C862.34,716.28,856.58,721,856.58,721L699.87,630.53s0-6.92,7.93-20.73c7.47-12.94,13.49-16.37,13.49-16.37Z"/><path class="cls-2" d="M856.58,593.43s5.76,4.73,12.73,16.81c7.47,12.94,8.69,20.29,8.69,20.29L721.28,721s-6-3.43-14-17.23c-7.47-12.94-7.43-19.87-7.43-19.87Z"/><circle class="cls-2" cx="788.12" cy="656.13" r="57.7"/><g class="cls-3"><circle cx="791" cy="660" r="23"/><circle class="cls-5" cx="791" cy="660" r="23"/></g><circle cx="789" cy="656" r="23"/><circle class="cls-5" cx="789" cy="656" r="23"/><g class="cls-3"><circle class="cls-2" cx="790" cy="626" r="4"/><circle class="cls-2" cx="790" cy="692" r="4"/><circle class="cls-2" cx="761.42" cy="642.5" r="4" transform="translate(-175.71 980.66) rotate(-60)"/><circle class="cls-2" cx="818.58" cy="675.5" r="4" transform="translate(-175.71 1046.66) rotate(-60)"/><circle class="cls-2" cx="761.42" cy="675.5" r="4" transform="translate(-235.74 471.21) rotate(-30)"/><circle class="cls-2" cx="818.58" cy="642.5" r="4" transform="translate(-211.58 495.37) rotate(-30)"/></g><circle class="cls-2" cx="789" cy="624" r="4"/><circle class="cls-2" cx="789" cy="690" r="4"/><circle class="cls-2" cx="760.42" cy="640.5" r="4" transform="translate(-174.48 978.79) rotate(-60)"/><circle class="cls-2" cx="817.58" cy="673.5" r="4" transform="translate(-174.48 1044.79) rotate(-60)"/><circle class="cls-2" cx="760.42" cy="673.5" r="4" transform="translate(-234.87 470.44) rotate(-30)"/><circle class="cls-2" cx="817.58" cy="640.5" r="4" transform="translate(-210.72 494.6) rotate(-30)"/><g id="backwheel"><path class="cls-2" d="M842,553s-12.89-8.14-39-10a243.82,243.82,0,0,0-29,0l-4-78s7-3,36,3c29.64,6.13,36,12,36,12Z"/><path class="cls-2" d="M873.16,575.09s-9.67-11.79-33.85-21.79a243.82,243.82,0,0,0-27.52-9.15l20.81-75.28s7.59-.64,33.22,14.2c26.19,15.17,30.38,22.74,30.38,22.74Z"/><path class="cls-2" d="M895.91,611.73s-4.36-14.61-22.79-33.19a243.82,243.82,0,0,0-21.84-19.08l48.31-61.37s7.25,2.35,25.14,25.95c18.28,24.12,19.21,32.72,19.21,32.72Z"/><path class="cls-2" d="M904.35,653.64s1.53-15.17-8.46-39.36a243.82,243.82,0,0,0-12.94-26l68-38.39s5.81,4.93,13.38,33.56c7.74,29.26,5.33,37.57,5.33,37.57Z"/><path class="cls-2" d="M896.58,691s6.76-13.67,5.92-39.82a243.82,243.82,0,0,0-3-28.84l77.17-12s3.71,6.65.73,36.12c-3,30.11-8.22,37-8.22,37Z"/><path class="cls-2" d="M878.08,728.41s10.57-11,17.65-36.19a243.82,243.82,0,0,0,5.84-28.4l77.21,11.8s1.53,7.46-10.19,34.66c-12,27.79-19,32.84-19,32.84Z"/><path class="cls-2" d="M850.16,754.48s13.49-7.1,28.17-28.77a243.82,243.82,0,0,0,14.51-25.11l69.54,35.55s-.9,7.56-20.61,29.67c-20.14,22.6-28.4,25.17-28.4,25.17Z"/><path class="cls-2" d="M809.69,769.38s15.19-1.32,37.1-15.63a243.82,243.82,0,0,0,23.09-17.55l50.38,59.68s-3.76,6.62-30.48,19.39c-27.31,13-35.92,12.23-35.92,12.23Z"/><path class="cls-2" d="M766.94,769.2s14.55,4.55,40.26-.35a243.82,243.82,0,0,0,28-7.45l23.9,74.36s-6,4.7-35.56,6.34c-30.22,1.68-37.87-2.35-37.87-2.35Z"/><path class="cls-2" d="M731.9,754.06s12,9.37,37.82,13.82a243.82,243.82,0,0,0,28.86,2.88l-3.76,78s-7.26,2.29-35.52-6.56c-28.88-9-34.63-15.51-34.63-15.51Z"/><path class="cls-2" d="M699.52,732.92s9.33,12.06,33.22,22.75A243.82,243.82,0,0,0,760,765.59L737,840.25s-7.6.42-32.8-15.14c-25.75-15.91-29.72-23.6-29.72-23.6Z"/><path class="cls-2" d="M677.82,695.65s3.94,14.73,21.84,33.83a243.82,243.82,0,0,0,21.29,19.69l-50,60s-7.18-2.55-24.39-26.65c-17.59-24.63-18.28-33.26-18.28-33.26Z"/><path class="cls-2" d="M670.57,653.51s-2,15.12,7.33,39.59a243.82,243.82,0,0,0,12.2,26.31L621,755.85s-5.67-5.09-12.42-33.92c-6.91-29.47-4.26-37.71-4.26-37.71Z"/><path class="cls-2" d="M679.4,616.37s-7.14,13.47-7,39.64a243.82,243.82,0,0,0,2.18,28.92l-77.48,9.84s-3.52-6.76.29-36.12c3.89-30,9.27-36.8,9.27-36.8Z"/><path class="cls-2" d="M699,579.53s-10.87,10.69-18.67,35.67a243.82,243.82,0,0,0-6.65,28.23l-76.84-14s-1.32-7.5,11.17-34.35c12.76-27.44,19.93-32.29,19.93-32.29Z"/><path class="cls-2" d="M727.6,554.26s-13.69,6.71-29,28a243.82,243.82,0,0,0-15.21,24.69l-68.5-37.51s1.12-7.53,21.44-29.07c20.77-22,29.1-24.35,29.1-24.35Z"/><path class="cls-2" d="M768.48,540.51s-15.22.89-37.53,14.57A243.82,243.82,0,0,0,707.37,572l-48.66-61.09s3.94-6.51,31-18.52c27.67-12.27,36.26-11.2,36.26-11.2Z"/><path class="cls-2" d="M811.21,541.9s-14.42-5-40.25-.79a243.82,243.82,0,0,0-28.23,6.65l-21.77-75s6.13-4.52,35.73-5.33c30.25-.83,37.79,3.43,37.79,3.43Z"/></g></g></g></g></svg>