<svg id="Layer_1" data-name="Layer 1" xmlns="http://www.w3.org/2000/svg" viewBox="0 0 200 200"><defs><style>.cls-1{fill:#353432;}.cls-2{fill:#fac801;}</style></defs><title>traktorArtboard 1</title><path class="cls-1" d="M144.07,42.22q1.14,13.27,2.28,26.54c.36,4.11.75,8.22,1.12,12.34a59.42,59.42,0,0,0-25.07,2.76C107.6,89,98.77,99.34,95.49,114.65c4.2,1,5.4-1.84,6.58-4.38,2.87-6.19,7.52-10.59,13.25-14.12,18.58-11.45,40.19-8.92,55.54,6.48,1.91,1.92,3.22,4.64,6.18,5.39l0-.06c-.26.91.23,1.35,1,1.61.75,2.31,2.34,5-2.61,4.69,2.58,2.91,3.07,6.44,4.23,9.69.27.75.52,2.24.34,2.31-5.88,2.42-1.18,6-.86,8.93.21,1.94,0,4.3,1.9,5.81v1c-2.66,1.28-1.63,4.32-2.93,6.13-1,1.42,0,5.73-4.46,3.44-1.34-.69-2,2.24-2.3,3.56-1.39,5.5-3.65,10.19-8.9,13.11-1.86,1-3.15,2.71-5.37.51-1.69-1.68-2.56.66-3.52,1.41-5.09,4-10.31,7.36-17.23,6.15-1-.17-2.62.16-2.61-.83,0-5.29-3.78-3.34-6.27-3.35-5.84,0-12.4-.72-14.5-6.25-2.46-6.47-8.86-8.68-11.75-14.08A3.87,3.87,0,0,0,97,149.33c-5.33.11-10.67.2-16-.09-3.32-.18-4.44.83-5,4.21A26.84,26.84,0,0,1,46.28,175C33.09,173.24,23.14,161,23.79,147.5c.3-6.26,3.54-11.29,6.4-16.52,2.28-1.65,4.52-3.38,6.87-4.93,1.24-.81,2.29-1.75,1.63-3.2-1.57-3.45,1-3,2.84-3.17,18.7-1.75,31,5.19,39.59,22.19,1,2,1.52,4.53,4.48,4.68.85-1.77.17-3.32-.3-4.92a38.23,38.23,0,0,0-10.74-17.54c-3.18-3-2.37-4.53,1.15-5.89,2.92-1.12,5.71-2.64,8.87-3,2.06-.26,3-.91,2.95-3.44-.07-10.48.25-21,.43-31.46,2.58-9.32,4.28-18.92,8.69-27.66.7-1.39.07-1.73-1.06-2.56C93.8,48.71,93,46.68,95,44.66c2.74,1.08,5.16-.65,7.73-1A253.21,253.21,0,0,1,144.07,42.22ZM161,134.3c.24-11.53-9.3-22.66-19.47-22.71-13.53-.07-24.9,8.38-25.21,18.75-.38,12.59,8.94,25.82,18.43,26.17C150.23,157.07,160.68,148.23,161,134.3ZM122.8,47.43c-5.24.29-9.38.56-13.53.73a7.34,7.34,0,0,0-7.35,5.53,142.7,142.7,0,0,0-6,22c-.5,3,.38,3.69,2.87,3.2,9.39-1.84,18.87-.56,28.3-.89,3.25-.11,6.48-.4,9.63,1.51,2.06,1.26,4.15.62,4.14-2.71a206.91,206.91,0,0,0-1.8-25.33c-.33-2.57-1.69-3.37-4-3.46C130.68,47.81,126.21,47.59,122.8,47.43ZM64.9,147.76c.33-7.78-6.15-14.06-14.32-14.67-7.34-.55-16.41,8.62-16.37,14.71.05,7.94,6.16,16.44,15.91,17C57,165.23,65.2,158,64.9,147.76Z"/><path class="cls-1" d="M88,80.26c-.18,10.49-.5,21-.43,31.46,0,2.53-.89,3.18-2.95,3.44-3.16.4-6,1.92-8.87,3-3.52,1.36-4.32,2.93-1.15,5.89A38.23,38.23,0,0,1,85.3,141.63c.46,1.6,1.14,3.15.3,4.92-3-.15-3.49-2.72-4.48-4.68-8.57-17-20.89-23.94-39.59-22.19-1.88.18-4.41-.28-2.84,3.17.66,1.44-.4,2.38-1.63,3.2-2.35,1.55-4.59,3.27-6.87,4.93-.5-5.8-.93-11.6-1.52-17.39-.31-3,.53-4.38,3.84-4.92,2.56-.41,5.44-1.4,6.71-4.45s1.52-6.21.05-8.58c-1.15-1.85-3.9.45-6,.63-1.07.09-2.31,1.33-3.12,0-.66-1.13.35-2.08,1.08-3,3.4-4.45,8.73-4.89,13.41-5.75,11-2,21.75-5.72,33-6.79,1.56,1,2.88-.38,4.33-.44ZM42.38,98.49c-.73,4.08,1.67,3.87,4.46,3.38,11.44-2,22.86-4.09,34.35-5.8,5.55-.83,1.43-4.38,2.06-6.49.82-2.77-2-1.34-2.94-1.24-11.75,1.23-23.18,4.23-34.79,6.28C43.18,95,41.77,95.89,42.38,98.49Z"/><path class="cls-1" d="M177,108c-3-.75-4.27-3.46-6.18-5.39-15.35-15.41-37-17.93-55.54-6.48-5.73,3.53-10.38,7.93-13.25,14.12-1.18,2.54-2.38,5.37-6.58,4.38C98.77,99.34,107.6,89,122.4,83.86a59.42,59.42,0,0,1,25.07-2.76,81.35,81.35,0,0,1,21.78,8.14c2.23,1.27,3.78,2.54,4.11,5.58C173.85,99.34,177.42,103.14,177,108Z"/><path class="cls-1" d="M144.07,42.22a253.21,253.21,0,0,0-41.3,1.47c-2.58.31-5,2-7.73,1-.59-5.46,4.55-3,6.26-3.54,7-2,14.32-2.87,21.58-3.69,6.09-.69,12.26-.81,18.15,1.49C142.51,39.49,144.85,39.48,144.07,42.22Z"/><path class="cls-1" d="M82,80.22c-1.45.06-2.77,1.45-4.33.44-.36-8,.41-15.94-.57-23.91-.27-2.23-.44-4.22-2.18-5.83-1-1-.9-2.06.1-3,1.2-1.18,2.08-.4,2.94.47a13.6,13.6,0,0,1,4,9.9C81.94,65.56,82,72.89,82,80.22Z"/><path class="cls-2" d="M178,109.57c-.78-.26-1.26-.7-1-1.61C178,108.07,178,108.82,178,109.57Z"/><path class="cls-1" d="M132.23,134.31c.33-4.3,2.93-6.9,7.05-6.59a6.07,6.07,0,0,1,5.73,6.76c-.56,3.82-3,6.23-6.82,5.55C135.57,139.56,131.63,139.45,132.23,134.31Z"/><path class="cls-1" d="M50.69,154.22c-3.69-.11-5.9-1.16-6-4.84s1.9-5.79,5.23-6a5,5,0,0,1,5.57,5C55.71,151.91,53.69,153.86,50.69,154.22Z"/></svg>