<svg id="Layer_3" data-name="Layer 3" xmlns="http://www.w3.org/2000/svg" viewBox="0 0 1080 1080"><defs><style>.cls-1{fill:none;stroke-width:15px;}.cls-1,.cls-2{stroke:#374f68;stroke-miterlimit:10;}.cls-2,.cls-6{fill:#374f68;}.cls-2{stroke-width:8px;}.cls-3{fill:#8d0022;}.cls-4{fill:#df0018;}.cls-5{fill:#007be9;}.cls-7{fill:#ffe58a;}</style></defs><title>traktor2Artboard 1</title><g id="steering_wheel" data-name="steering wheel"><line class="cls-1" x1="513.81" y1="462.69" x2="663.45" y2="305.57"/><ellipse class="cls-2" cx="663.45" cy="305.57" rx="11.22" ry="71.08" transform="translate(-15.38 575.26) rotate(-46.4)"/></g><g id="huv"><rect class="cls-3" x="210.95" y="371.24" width="562.38" height="184.36" rx="23" transform="translate(69.19 -63.91) rotate(7.99)"/><rect class="cls-4" x="93.58" y="315.54" width="188.29" height="332.94" rx="23"/><rect class="cls-5" x="281.88" y="315.54" width="330.45" height="94.77" rx="23"/></g><path id="säte" class="cls-3" d="M927.81,401.59c0-20,1.25-31.18,18.7-33.67s34.92,6.23,32.42-7.48-21.19-31.18-47.38-24.94S904.12,353,877.93,353s-84.79-8.72-98.51-12.47S734.53,326.77,747,348s32.42,27.43,32.42,27.43,67.34-7.48,82.3,1.25,41.15,49.88,53.62,37.41Z"/><g id="bakhjul"><circle class="cls-6" cx="818.7" cy="632.9" r="236.3"/><circle class="cls-4" cx="818.7" cy="632.9" r="146.52"/><ellipse class="cls-5" cx="814.96" cy="632.28" rx="33.04" ry="33.17"/></g><path id="stänkskärm" class="cls-5" d="M1012.6,515.06c43.88-5.25-12.47-76.06-58.6-103.5s-87.29-42.4-137.17-43.64-107.24,21.2-134.68,37.41S613.57,459,614.82,482.64s43.62,11.73,56.11,0C712.08,444,750.74,424,816.83,422.78,957.72,420.13,958.88,521.49,1012.6,515.06Z"/><g id="framhjul"><ellipse class="cls-6" cx="183.99" cy="694.62" rx="158.99" ry="159.61"/><ellipse class="cls-4" cx="183.99" cy="694.62" rx="90.67" ry="91.03"/><ellipse class="cls-5" cx="183.99" cy="694.62" rx="23.6" ry="23.69"/></g><g id="skorsten"><rect class="cls-6" x="271.9" y="389.12" width="19.95" height="86.04" rx="8"/><rect class="cls-6" x="254.44" y="293.1" width="54.87" height="124.7" rx="7"/><path class="cls-6" d="M281.88,318h0a10,10,0,0,1-10-10V238.23c0-3.74-1.25-7.48-6.23-7.48H252c-5.49,0-5.49-19.95,0-19.95h29.93a10,10,0,0,1,10,10v87.29A10,10,0,0,1,281.88,318Z"/></g><g id="lykta"><path class="cls-6" d="M62.81,363.62l10.5,74.73s75.88-10.67,68.41-47.13S62.81,363.62,62.81,363.62Z"/><ellipse class="cls-7" cx="68.4" cy="400.95" rx="10.52" ry="37.98" transform="translate(-55.14 13.42) rotate(-8)"/></g></svg>